<?xml version="1.0" encoding="UTF-8" standalone="no"?>
<!-- Created with Inkscape (http://www.inkscape.org/) -->

<svg
   xmlns:dc="http://purl.org/dc/elements/1.1/"
   xmlns:cc="http://creativecommons.org/ns#"
   xmlns:rdf="http://www.w3.org/1999/02/22-rdf-syntax-ns#"
   xmlns:svg="http://www.w3.org/2000/svg"
   xmlns="http://www.w3.org/2000/svg"
   xmlns:sodipodi="http://sodipodi.sourceforge.net/DTD/sodipodi-0.dtd"
   xmlns:inkscape="http://www.inkscape.org/namespaces/inkscape"
   width="512"
   height="512"
   viewBox="0 0 512.00001 512.00001"
   id="svg2"
   version="1.1"
   inkscape:version="0.91 r13725"
   sodipodi:docname="settings.svg"
   inkscape:export-filename="C:\Users\g\AndroidStudioProjects\FreeDomainRadio\icons_src\ic_view_off.png"
   inkscape:export-xdpi="5.625"
   inkscape:export-ydpi="5.625">
  <defs
     id="defs4" />
  <sodipodi:namedview
     id="base"
     pagecolor="#ffffff"
     bordercolor="#000000"
     borderopacity="0.78431373"
     inkscape:pageopacity="0.0"
     inkscape:pageshadow="2"
     inkscape:zoom="1"
     inkscape:cx="11.696429"
     inkscape:cy="233.06991"
     inkscape:document-units="px"
     inkscape:current-layer="layer1"
     showgrid="false"
     units="px"
     borderlayer="true"
     inkscape:showpageshadow="false"
     inkscape:window-width="1920"
     inkscape:window-height="1018"
     inkscape:window-x="-8"
     inkscape:window-y="-8"
     inkscape:window-maximized="1" />
  <metadata
     id="metadata7">
    <rdf:RDF>
      <cc:Work
         rdf:about="">
        <dc:format>image/svg+xml</dc:format>
        <dc:type
           rdf:resource="http://purl.org/dc/dcmitype/StillImage" />
        <dc:title></dc:title>
      </cc:Work>
    </rdf:RDF>
  </metadata>
  <g
     inkscape:groupmode="layer"
     id="layer2"
     inkscape:label="bkg"
     sodipodi:insensitive="true"
     style="display:none">
    <rect
       style="fill:#5a5a5a;fill-opacity:1"
       id="rect4152"
       width="512"
       height="512"
       x="0"
       y="0" />
  </g>
  <g
     inkscape:label="Layer 1"
     inkscape:groupmode="layer"
     id="layer1"
     transform="translate(0,-540.36216)"
     style="opacity:0.75">
    <path
       style="opacity:1;fill:#ffffff;fill-opacity:1;stroke:#000000;stroke-width:15;stroke-linecap:round;stroke-linejoin:round;stroke-miterlimit:4;stroke-dasharray:none;stroke-opacity:1"
       d="M 228.5 85 L 228.5 131.66406 A 127.5 127.49999 0 0 0 183.58789 151.23242 L 152 119.64453 L 116.64453 155 L 148.82422 187.17969 A 127.5 127.49999 0 0 0 130.61328 233.5 L 84 233.5 L 84 283.5 L 131.66406 283.5 A 127.5 127.49999 0 0 0 151.64844 328.99609 L 119.64453 361 L 155 396.35547 L 187.80078 363.55469 A 127.5 127.49999 0 0 0 228.5 380.4043 L 228.5 428 L 278.5 428 L 278.5 381.45898 A 127.5 127.49999 0 0 0 324.28125 363.63672 L 357 396.35547 L 392.35547 361 L 360.41797 329.0625 A 127.5 127.49999 0 0 0 380.4043 283.5 L 428 283.5 L 428 233.5 L 381.45898 233.5 A 127.5 127.49999 0 0 0 363.63672 187.71875 L 396.35547 155 L 361 119.64453 L 329.0625 151.58203 A 127.5 127.49999 0 0 0 278.5 130.61328 L 278.5 85 L 228.5 85 z M 256 165.5 A 90.5 90.5 0 0 1 346.5 256 A 90.5 90.5 0 0 1 256 346.5 A 90.5 90.5 0 0 1 165.5 256 A 90.5 90.5 0 0 1 256 165.5 z "
       transform="translate(0,540.36216)"
       id="path4725" />
    <circle
       style="opacity:1;fill:#ffffff;fill-opacity:1;stroke:#000000;stroke-width:15;stroke-linecap:round;stroke-linejoin:round;stroke-miterlimit:4;stroke-dasharray:none;stroke-opacity:1"
       id="path4906"
       cx="256"
       cy="796.36218"
       r="32.5" />
  </g>
</svg>
