<?xml version="1.0" encoding="UTF-8" standalone="no"?>
<!-- Created with Inkscape (http://www.inkscape.org/) -->

<svg
   xmlns:dc="http://purl.org/dc/elements/1.1/"
   xmlns:cc="http://creativecommons.org/ns#"
   xmlns:rdf="http://www.w3.org/1999/02/22-rdf-syntax-ns#"
   xmlns:svg="http://www.w3.org/2000/svg"
   xmlns="http://www.w3.org/2000/svg"
   xmlns:sodipodi="http://sodipodi.sourceforge.net/DTD/sodipodi-0.dtd"
   xmlns:inkscape="http://www.inkscape.org/namespaces/inkscape"
   width="512"
   height="512"
   viewBox="0 0 512.00001 512.00001"
   id="svg2"
   version="1.1"
   inkscape:version="0.91 r13725"
   sodipodi:docname="view1.svg"
   inkscape:export-filename="C:\Users\g\AndroidStudioProjects\FreeDomainRadio\icons_src\ic_view.png"
   inkscape:export-xdpi="5.625"
   inkscape:export-ydpi="5.625">
  <defs
     id="defs4" />
  <sodipodi:namedview
     id="base"
     pagecolor="#ffffff"
     bordercolor="#000000"
     borderopacity="0.78431373"
     inkscape:pageopacity="0.0"
     inkscape:pageshadow="2"
     inkscape:zoom="1"
     inkscape:cx="32.696429"
     inkscape:cy="233.06991"
     inkscape:document-units="px"
     inkscape:current-layer="layer1"
     showgrid="false"
     units="px"
     borderlayer="true"
     inkscape:showpageshadow="false"
     inkscape:window-width="1920"
     inkscape:window-height="1018"
     inkscape:window-x="-8"
     inkscape:window-y="-8"
     inkscape:window-maximized="1" />
  <metadata
     id="metadata7">
    <rdf:RDF>
      <cc:Work
         rdf:about="">
        <dc:format>image/svg+xml</dc:format>
        <dc:type
           rdf:resource="http://purl.org/dc/dcmitype/StillImage" />
        <dc:title></dc:title>
      </cc:Work>
    </rdf:RDF>
  </metadata>
  <g
     inkscape:groupmode="layer"
     id="layer2"
     inkscape:label="bkg"
     sodipodi:insensitive="true"
     style="display:none">
    <rect
       style="fill:#5a5a5a;fill-opacity:1"
       id="rect4152"
       width="512"
       height="512"
       x="0"
       y="0" />
  </g>
  <g
     inkscape:label="Layer 1"
     inkscape:groupmode="layer"
     id="layer1"
     transform="translate(0,-540.36216)"
     style="opacity:0.75">
    <path
       style="fill:#ffffff;fill-rule:evenodd;stroke:#000000;stroke-width:15;stroke-linecap:round;stroke-linejoin:round;stroke-opacity:1;stroke-miterlimit:4;stroke-dasharray:none;fill-opacity:1"
       d="m 262,149 c -79.17436,0.11694 -136.14271,32.41422 -205,100 l 36,25 c 0,0 7.16737,-5.36162 18.59961,-12.98828 14.62998,142.92825 234.64347,185.6468 284.55469,20.60156 4.00639,4.25488 7.95955,8.71107 11.8457,13.38672 l 53,-39 C 382.20385,184.30046 344.66442,156.67347 262,149 Z M 215.90039,210.62109 246,258 186.04102,237.34766 C 184.03607,243.72465 183.01178,250.344 183,257 c 0,38.10784 32.48043,69.00028 72.54688,69 40.06569,-7.5e-4 72.54492,-30.89289 72.54492,-69 -0.03,-10.63063 -2.64226,-21.1109 -7.63282,-30.62305 12.91682,5.8948 25.84907,13.35629 38.54493,22.50586 -1.49846,154.97766 -209.60225,130.78275 -205.41016,-13.26562 19.99698,-10.77752 42.24828,-20.72522 62.30664,-24.9961 z"
       transform="translate(0,540.36216)"
       id="path4714"
       inkscape:connector-curvature="0"
       sodipodi:nodetypes="cccccccccccccccccc" />
  </g>
</svg>
